<svg xmlns="http://www.w3.org/2000/svg" viewBox="0 0 594.26 165.2"><defs><style>.cls-1,.cls-2{fill:none;stroke:#438977;stroke-miterlimit:10;}.cls-1{stroke-width:5px;}.cls-2{stroke-linecap:round;stroke-width:3px;}.cls-3{fill:#438977;}.cls-4{fill:#414042;}</style></defs><title>Asset 1</title><g id="Layer_2" data-name="Layer 2"><g id="Layer_1-2" data-name="Layer 1"><rect class="cls-1" x="379.01" y="47.09" width="120.08" height="84.69" rx="3.25" ry="3.25"/><path class="cls-2" d="M397.18,95.31c0-8,6.19-14.45,13.84-14.45s13.84,6.47,13.84,14.45"/><path class="cls-2" d="M450.08,95.31c0-8,6.19-14.45,13.84-14.45s13.84,6.47,13.84,14.45"/><circle class="cls-3" cx="472.8" cy="9.29" r="9.29"/><polygon class="cls-3" points="472.8 3.67 465.97 42.61 479.63 42.61 472.8 3.67"/><path class="cls-3" d="M414.9,164.56v-26a.64.64,0,0,1,.93-.56l50.82,27.12a.64.64,0,0,0,.93-.56v-26a.64.64,0,0,0-.93-.56l-50.82,27.12A.64.64,0,0,1,414.9,164.56Z"/><path class="cls-4" d="M33.45,48.05v78.3H56a5,5,0,0,1,3.36.9,3,3,0,0,1,1,2.38,3.06,3.06,0,0,1-1,2.34,4.89,4.89,0,0,1-3.36.94H4.38A4.89,4.89,0,0,1,1,132a3.06,3.06,0,0,1-1-2.34,3,3,0,0,1,1-2.38,5,5,0,0,1,3.36-.9H26.88V48.05H4.38A5,5,0,0,1,1,47.16a3.3,3.3,0,0,1,0-4.77,5,5,0,0,1,3.36-.9H56a5,5,0,0,1,3.36.9,3.3,3.3,0,0,1,0,4.77,5,5,0,0,1-3.36.9Z"/><path class="cls-4" d="M130.5,105.49H123L97.76,48.05H96.51v78.3h12.11a5,5,0,0,1,3.36.9,3,3,0,0,1,1,2.38,3.06,3.06,0,0,1-1,2.34,4.89,4.89,0,0,1-3.36.94H84.39A4.89,4.89,0,0,1,81,132a3.06,3.06,0,0,1-1-2.34,3,3,0,0,1,1-2.38,5,5,0,0,1,3.36-.9h5.55V48.05H85.8a5,5,0,0,1-3.36-.9,3.3,3.3,0,0,1,0-4.77,5,5,0,0,1,3.36-.9h16.1l24.85,56.58,24.46-56.58h16.1a5.19,5.19,0,0,1,3.44.9,3.3,3.3,0,0,1,0,4.77,5.18,5.18,0,0,1-3.44.9h-4.06v78.3h5.47a5.19,5.19,0,0,1,3.44.9,3,3,0,0,1,1,2.38,3.06,3.06,0,0,1-1,2.34,5,5,0,0,1-3.44.94H144.56a5.05,5.05,0,0,1-3.4-.94,3.22,3.22,0,0,1,0-4.73,5.19,5.19,0,0,1,3.44-.9h12.11V48.05h-1.41Z"/><path class="cls-4" d="M257.87,99v28.13a70.87,70.87,0,0,1-15,6.25A54.52,54.52,0,0,1,228,135.5a50.86,50.86,0,0,1-18.56-3.13,38.28,38.28,0,0,1-13.56-8.75A42.18,42.18,0,0,1,187.27,111q-3.09-7-3.09-17.66v-12a44.62,44.62,0,0,1,5.35-21,37.86,37.86,0,0,1,14.65-15.59,39.64,39.64,0,0,1,20.24-5.39q15.86,0,26.8,8.67a21,21,0,0,1,.27-4.61,2.8,2.8,0,0,1,1.13-1.37,3.38,3.38,0,0,1,2-.59,3.06,3.06,0,0,1,2.34,1,4.89,4.89,0,0,1,.94,3.36V60.71a4.86,4.86,0,0,1-.94,3.4,3.11,3.11,0,0,1-2.34,1,3,3,0,0,1-2.23-.9,4.65,4.65,0,0,1-1-3.17q-.47-6.64-8.63-10.86A38.15,38.15,0,0,0,225,45.94a33.9,33.9,0,0,0-16.37,3.95q-7.31,3.95-13.64,15a32.23,32.23,0,0,0-4.22,16.49v12q0,16.33,10,25.94t27.58,9.61a46,46,0,0,0,11-1.25,68.29,68.29,0,0,0,11.88-4.38V99H228.65a5,5,0,0,1-3.36-.9,3,3,0,0,1-1-2.38,3.15,3.15,0,0,1,1-2.42,4.89,4.89,0,0,1,3.36-.94l31.57.08a5,5,0,0,1,3.36.9,3,3,0,0,1,1,2.38A3.13,3.13,0,0,1,264,97.6a3,3,0,0,1-1.41,1.13A21.58,21.58,0,0,1,257.87,99Z"/><path class="cls-4" d="M290.22,126.35V48.05h-8.83a5,5,0,0,1-3.36-.9,3.3,3.3,0,0,1,0-4.77,5,5,0,0,1,3.36-.9h41.26q12.27,0,20,7.07t7.7,16.61q0,12-12.89,19.46,10.24,3.67,15,9.77a21.32,21.32,0,0,1,4.77,13.44,23.62,23.62,0,0,1-3.13,12,26,26,0,0,1-9.57,9.26,27,27,0,0,1-14,3.83H281.39A4.89,4.89,0,0,1,278,132a3.06,3.06,0,0,1-1-2.34,3,3,0,0,1,1-2.38,5,5,0,0,1,3.36-.9Zm6.56-44.23H320a33.18,33.18,0,0,0,13.6-2.73A17,17,0,0,0,341,73.06a15.47,15.47,0,0,0,2.66-8.44q0-6.17-5.78-11.37t-15.08-5.2h-26Zm0,44.23H330a21,21,0,0,0,11-2.81,19.82,19.82,0,0,0,7.11-7,16.8,16.8,0,0,0,2.42-8.6,16.09,16.09,0,0,0-3.48-9.69,21.4,21.4,0,0,0-9.65-7.11q-6.17-2.42-17-2.42h-23.6Z"/><path class="cls-4" d="M560.82,44.2v78.3h17a5,5,0,0,1,3.36.9,3,3,0,0,1,1,2.38,3.06,3.06,0,0,1-1,2.34,4.89,4.89,0,0,1-3.36.94H537.14a4.89,4.89,0,0,1-3.36-.94,3.06,3.06,0,0,1-1-2.34,3,3,0,0,1,1-2.38,5,5,0,0,1,3.36-.9h17V44.2H527.29V66.94a5.18,5.18,0,0,1-.9,3.44,3.26,3.26,0,0,1-4.73,0,5,5,0,0,1-.94-3.44V37.63h73.53v29.3a5.18,5.18,0,0,1-.9,3.44,3.3,3.3,0,0,1-4.77,0,5.18,5.18,0,0,1-.9-3.44V44.2Z"/></g></g></svg>
