<svg id="Layer_1" data-name="Layer 1" xmlns="http://www.w3.org/2000/svg" viewBox="0 0 256 256"><defs><style>.cls-1,.cls-2{fill:none;stroke:#438977;stroke-miterlimit:10;}.cls-1{stroke-width:9.88px;}.cls-2{stroke-linecap:round;stroke-width:5.87px;}.cls-3{fill:#438977;}</style></defs><title>256x256_transparent</title><rect class="cls-1" x="65.17" y="91.78" width="125.65" height="88.07" rx="3.39"/><path class="cls-2" d="M85.88,142c0-8.34,6.48-15.11,14.47-15.11s14.46,6.77,14.46,15.11"/><path class="cls-2" d="M141.19,142c0-8.34,6.47-15.11,14.46-15.11s14.47,6.77,14.47,15.11"/><circle class="cls-3" cx="162.94" cy="38.35" r="9.98"/><polygon class="cls-3" points="163.18 33.45 156.04 74.17 170.32 74.17 163.18 33.45"/><path class="cls-3" d="M100.4,225.83V198.58a.66.66,0,0,1,1-.58l53.24,28.41a.66.66,0,0,0,1-.58V198.58a.66.66,0,0,0-1-.58l-53.24,28.41A.66.66,0,0,1,100.4,225.83Z"/></svg>