<svg xmlns="http://www.w3.org/2000/svg" viewBox="0 0 125.08 165.2"><defs><style>.cls-1,.cls-2{fill:none;stroke:#438977;stroke-miterlimit:10;}.cls-1{stroke-width:5px;}.cls-2{stroke-linecap:round;stroke-width:3px;}.cls-3{fill:#438977;}</style></defs><title>imgboticon</title><g id="Layer_2" data-name="Layer 2"><g id="Layer_1-2" data-name="Layer 1"><rect class="cls-1" x="2.5" y="47.09" width="120.08" height="84.69" rx="3.25" ry="3.25"/><path class="cls-2" d="M20.68,95.31c0-8,6.19-14.45,13.84-14.45s13.84,6.47,13.84,14.45"/><path class="cls-2" d="M73.57,95.31c0-8,6.19-14.45,13.84-14.45s13.84,6.47,13.84,14.45"/><circle class="cls-3" cx="96.29" cy="9.29" r="9.29"/><polygon class="cls-3" points="96.3 3.67 89.47 42.61 103.12 42.61 96.3 3.67"/><path class="cls-3" d="M38.4,164.56v-26a.64.64,0,0,1,.93-.56l50.82,27.12a.64.64,0,0,0,.93-.56v-26a.64.64,0,0,0-.93-.56L39.33,165.12A.64.64,0,0,1,38.4,164.56Z"/></g></g></svg>