<svg xmlns="http://www.w3.org/2000/svg" id="Layer_1" data-name="Layer 1" viewBox="0 0 708.58 256"><defs><style>.cls-1{fill:#5a5d5f}.cls-2,.cls-3{fill:none;stroke:#438977;stroke-miterlimit:10}.cls-2{stroke-width:10.12px}.cls-3{stroke-linecap:round;stroke-width:6px}.cls-4{fill:#438977}</style></defs><title>256h_imgbot_transparent</title><path d="M56.3,95.51V86.77h36v8.74L81.07,97.43v78.91l11.21,1.93v8.67h-36v-8.67l11.21-1.93V97.43Z" class="cls-1"/><path d="M203.33,106.72l-.34-.07-32.41,80.29h-9l-32.4-80.22-.35.07,1.38,40.52v29l11.21,1.93v8.67h-36v-8.67l11.22-1.93V97.43l-11.22-1.92V86.77H134l31.92,81.39h.42l31.85-81.39h28.62v8.74l-11.21,1.92v78.91l11.21,1.93v8.67h-36v-8.67L202,176.34v-29Z" class="cls-1"/><path d="M317.4,175.59q-4.41,4.6-13,8.7T282,188.38q-20.1,0-32.78-14.1t-12.7-36.6V136q0-22.64,12.56-36.67t33.4-14a51,51,0,0,1,19.57,3.47A43.77,43.77,0,0,1,316.3,98v18.17h-9.5l-3.3-13.83a28.44,28.44,0,0,0-8.15-4.54A32.83,32.83,0,0,0,283.89,96q-16.23,0-25,11.11t-8.77,28.79v1.79q0,18,8.49,29T282,177.79a43.93,43.93,0,0,0,13.41-1.72,36.15,36.15,0,0,0,8.39-3.79V150.34l-16.44-.69v-10h30Z" class="cls-1"/><path d="M373.45,86.77q15.69,0,24.53,6.78t8.84,20.33a18.55,18.55,0,0,1-4.23,11.93,25.06,25.06,0,0,1-11.18,7.81,23.24,23.24,0,0,1,14.24,8.87,26.22,26.22,0,0,1,5.23,16.17q0,13.77-8.95,21t-24.21,7.26H329.56v-8.67l11.21-1.93V97.43l-11.21-1.92V86.77h43.89ZM354.33,140v36.39h23.39q9.28,0,14.41-4.57t5.12-13q0-8.81-4.29-13.83t-13.18-5Zm0-10.6H377q7.29-.19,11.8-4.33t4.5-11.42q0-8.11-5.09-12.14t-14.72-4H354.33Z" class="cls-1"/><rect width="128.31" height="90.49" x="427.08" y="91.42" class="cls-2" rx="3.47"/><path d="M448.19,142.93c0-8.53,6.62-15.44,14.78-15.44s14.79,6.91,14.79,15.44" class="cls-3"/><path d="M504.71,142.93c0-8.53,6.62-15.44,14.79-15.44s14.78,6.91,14.78,15.44" class="cls-3"/><circle cx="527.08" cy="39.98" r="9.93" class="cls-4"/><polygon points="527.08 33.97 519.78 75.59 534.38 75.59 527.08 33.97" class="cls-4"/><path d="M463.08,226.21V198.43a.68.68,0,0,1,1-.6l54.31,29a.68.68,0,0,0,1-.6V198.43a.68.68,0,0,0-1-.6l-54.31,29A.68.68,0,0,1,463.08,226.21Z" class="cls-4"/><path d="M652.28,86.77v22.15H640.72l-1-11.49H617.47v78.91l11.22,1.93v8.67h-36v-8.67l11.21-1.93V97.43H581.63l-1,11.49H569V86.77Z" class="cls-1"/></svg>