<svg data-name="Layer 1" viewBox="0 0 1150.44 866.47"><defs><linearGradient id="a" x1="296.46" x2="296.46" y1="871.67" y2="306.73" gradientTransform="translate(636.4)" gradientUnits="userSpaceOnUse"><stop offset="0" stop-color="gray" stop-opacity=".25"/><stop offset=".54" stop-color="gray" stop-opacity=".12"/><stop offset="1" stop-color="gray" stop-opacity=".1"/></linearGradient></defs><path fill="#438977" d="M1119.63 593.56q-1.62 1.1-3.3 2.13a115.77 115.77 0 01-12.91 6.91c-23.47 10.85-52.37 16.15-80.52 19.75-63.16 8.08-127.64 9.65-191.84 11.19-173.48 4.17-347.41 8.35-520.43-1.28-68.36-3.8-138.25-10.16-200.21-29.66q-13.32-4.19-26.12-9.22c-17.26-6.81-33.85-15.11-47.63-25-13-9.28-23.47-19.94-29.75-32.06-13.09-25.24-6.16-53.59 8.79-78.34a241.83 241.83 0 0121-28.76c11.5-13.89 24.23-27.46 35.84-41.34 41.32-49.55 68.28-112.12 30.14-162.87-11-14.58-26.8-27.38-35.73-42.61-11.41-19.46-10.52-41.08-6.9-62.08.47-2.65 1-5.3 1.49-7.92 6.24-31.14 17.89-64.64 53.75-84.13 37.29-20.2 90.25-19.18 136.55-12 72 11.24 138.42 34.71 205.5 55.92s137.32 40.57 211.09 42.69c65.13 1.83 141.09-11.93 184.31-47.73 42-34.75 120.9-37.4 177.8-16.4 39 14.4 68.16 40.37 80.44 69.57a82 82 0 015.36 18.12 73.59 73.59 0 011 17.08c-.18 2.83-.51 5.62-1 8.38-9.51 57.62-77.91 103.06-119.5 154.54-20.32 25.14-34.66 55.33-20.69 82.45 21.31 41.31 95.41 56 140.19 86.74 8.6 5.89 16.12 12.39 22 19.8 21.62 27.33 13.61 64.33-18.72 86.13z" opacity=".1"/><g data-name="flowers"><path fill="none" stroke="#535461" stroke-miterlimit="10" stroke-width="2" d="M294.91 324.85s-46-81.52-115.32-105c-29.09-9.86-54.48-28.4-71.84-53.74a237.72 237.72 0 01-21.2-38.13"/><path fill="#438977" d="M42.96 112.91c7.9 7.66 44.68 15.59 44.68 15.59s-9-36.53-16.92-44.19a19.93 19.93 0 00-27.76 28.6zM63.77 179c10.79 2.14 46-11.19 46-11.19s-27.42-25.76-38.22-27.9A19.93 19.93 0 0063.8 179zm75.75 71.52c10.4-3.6 34-32.87 34-32.87s-36.68-8.39-47.07-4.79a19.93 19.93 0 1013 37.66zm69.51 41.24c10.86-1.79 39.1-26.64 39.1-26.64s-34.69-14.51-45.59-12.72a19.946 19.946 0 106.49 39.36zm-68.59-152.49c0 11-19.9 42.92-19.9 42.92s-19.94-31.9-19.95-42.9a19.93 19.93 0 1139.85 0zm80.65 49.22c-3.29 10.5-31.84 35-31.84 35s-9.48-36.41-6.2-46.91a19.93 19.93 0 0138 11.91zm71.84 58.6c-1.49 10.9-25.49 39.88-25.49 39.88s-15.5-34.28-14-45.19a19.93 19.93 0 1139.5 5.31z"/><path d="M42.96 112.91c7.9 7.66 44.68 15.59 44.68 15.59s-9-36.53-16.92-44.19a19.93 19.93 0 00-27.76 28.6zM63.77 179c10.79 2.14 46-11.19 46-11.19s-27.42-25.76-38.22-27.9A19.93 19.93 0 0063.8 179zm75.75 71.52c10.4-3.6 34-32.87 34-32.87s-36.68-8.39-47.07-4.79a19.93 19.93 0 1013 37.66zm69.51 41.24c10.86-1.79 39.1-26.64 39.1-26.64s-34.69-14.51-45.59-12.72a19.946 19.946 0 106.49 39.36zm-68.59-152.49c0 11-19.9 42.92-19.9 42.92s-19.94-31.9-19.95-42.9a19.93 19.93 0 1139.85 0zm80.65 49.22c-3.29 10.5-31.84 35-31.84 35s-9.48-36.41-6.2-46.91a19.93 19.93 0 0138 11.91zm71.84 58.6c-1.49 10.9-25.49 39.88-25.49 39.88s-15.5-34.28-14-45.19a19.93 19.93 0 1139.5 5.31z" opacity=".25"/><path fill="none" stroke="#535461" stroke-miterlimit="10" stroke-width="2" d="M292.26 323.23s-9-93.17-62.88-142.73c-22.59-20.8-38.29-48.05-43.9-78.24a238.23 238.23 0 01-3.92-43.45"/><path fill="#438977" d="M147.81 27.38c4.12 10.2 34.53 32.38 34.53 32.38s6.55-37 2.44-47.25a19.944 19.944 0 00-37 14.9zm-7.76 68.85c9 6.33 46.57 8.4 46.57 8.4s-14.64-34.66-23.64-41a19.93 19.93 0 00-22.93 32.6zm40.28 96.08c11 .92 44.44-16.26 44.44-16.26s-30.13-22.53-41.1-23.45a19.93 19.93 0 10-3.34 39.71zm46.84 65.83c10.66 2.77 46.55-8.51 46.55-8.51s-25.89-27.3-36.54-30.06a19.923 19.923 0 00-10 38.57zm-.95-167.18c-4.45 10.07-35.59 31.18-35.59 31.18s-5.3-37.25-.85-47.31a19.93 19.93 0 0136.44 16.13zm53.81 77.69c-7.26 8.27-43.29 19.1-43.29 19.1s6.08-37.13 13.35-45.4a19.93 19.93 0 1129.94 26.3zm41.94 82.69c-5.76 9.38-39.44 26.14-39.44 26.14s-.28-37.62 5.48-47a19.945 19.945 0 0134 20.86z"/></g><ellipse cx="639.99" cy="849.64" fill="#438977" opacity=".1" rx="335.02" ry="16.83"/><path fill="#438977" d="M266.17 817.38s-42.28-2.55-37.3 27.07c0 0-1 5.24 3.76 7.62 0 0 .07-2.2 4.33-1.45a20 20 0 004.6.22 9.56 9.56 0 005.61-2.32s11.89-4.91 16.51-24.34c0 0 3.42-4.23 3.28-5.32l-7.13 3s2.44 5.14.52 9.42c0 0-.23-9.24-1.6-9-.28.05-3.71 1.78-3.71 1.78s4.19 9 1 15.49c0 0 1.2-11.05-2.34-14.84l-5 2.93s4.9 9.27 1.58 16.82c0 0 .85-11.59-2.64-16.1l-4.55 3.55s4.61 9.12 1.8 15.39c0 0-.37-13.49-2.79-14.51 0 0-4 3.51-4.58 5 0 0 3.15 6.62 1.19 10.12 0 0-1.2-9-2.18-9 0 0-4 5.95-4.38 10 0 0 .17-6.07 3.42-10.6a11.9 11.9 0 00-6.08 3.14s.62-4.21 7.06-4.58c0 0 3.28-4.51 4.15-4.79 0 0-6.4-.54-10.28 1.19 0 0 3.42-4 11.46-2.17l4.49-3.67s-8.43-1.15-12 .12c0 0 4.11-3.51 13.21-.95l4.86-2.94s-7.18-1.54-11.46-1c0 0 4.51-2.43 12.9.21l3.49-1.57s-5.26-1-6.8-1.2-1.63-.59-1.63-.59a18.26 18.26 0 019.89 1.1s7.46-2.77 7.34-3.23z"/><ellipse cx="237.04" cy="854.65" fill="#438977" opacity=".1" rx="29.92" ry="5.06"/><path fill="#438977" d="M192.09 818.96s-23.83-1.44-21 15.26a4.07 4.07 0 002.12 4.29s0-1.23 2.44-.81a11.13 11.13 0 002.59.12 5.34 5.34 0 003.17-1.31s6.7-2.76 9.3-13.72c0 0 1.93-2.38 1.85-3l-4 1.72s1.37 2.9.29 5.31c0 0-.13-5.2-.9-5.08-.16 0-2.09 1-2.09 1s2.37 5.06.58 8.73c0 0 .68-6.23-1.32-8.36l-2.87 1.65s2.76 5.22.89 9.48c0 0 .48-6.53-1.48-9.07l-2.57 2s2.6 5.14 1 8.67c0 0-.2-7.6-1.57-8.18a15.45 15.45 0 00-2.58 2.8s1.77 3.73.67 5.7c0 0-.67-5.06-1.23-5.09 0 0-2.24 3.36-2.47 5.66a12.24 12.24 0 011.93-6 6.77 6.77 0 00-3.43 1.77s.35-2.37 4-2.58c0 0 1.85-2.54 2.34-2.7 0 0-3.61-.3-5.79.67 0 0 1.92-2.24 6.45-1.22l2.54-2.07s-4.75-.65-6.77.07c0 0 2.32-2 7.45-.54l2.76-1.65a25.22 25.22 0 00-6.47-.56s2.55-1.37 7.28.12l2-.89s-3-.58-3.84-.67-.91-.33-.91-.33a10.17 10.17 0 015.57.62s4.15-1.55 4.07-1.81z"/><ellipse cx="175.67" cy="839.97" fill="#438977" opacity=".1" rx="16.87" ry="2.85"/><path fill="#438977" d="M237.44 783.54s-28.78-1.73-25.39 18.44a4.92 4.92 0 002.56 5.18s.05-1.5 3-1a13.14 13.14 0 003.13.15 6.46 6.46 0 003.8-1.55s8.09-3.34 11.24-16.56c0 0 2.32-2.88 2.23-3.63l-4.85 2.08s1.65 3.5.35 6.41c0 0-.16-6.28-1.09-6.14-.19 0-2.52 1.22-2.52 1.22s2.85 6.1.7 10.54c0 0 .81-7.52-1.6-10.1l-3.41 2s3.33 6.31 1.07 11.45c0 0 .58-7.89-1.79-11l-3.1 2.42s3.13 6.21 1.22 10.47c0 0-.25-9.18-1.89-9.87 0 0-2.71 2.39-3.13 3.37 0 0 2.15 4.51.82 6.89 0 0-.82-6.12-1.49-6.15 0 0-2.7 4.06-3 6.83a14.77 14.77 0 012.33-7.22 8.15 8.15 0 00-4.14 2.15s.42-2.87 4.81-3.12c0 0 2.23-3.08 2.82-3.26 0 0-4.35-.37-7 .8 0 0 2.33-2.7 7.8-1.47l3.06-2.5s-5.74-.78-8.17.08c0 0 2.8-2.39 9-.64l3.33-2s-4.89-1-7.8-.67c0 0 3.07-1.66 8.78.14l2.38-1.07s-3.58-.7-4.63-.81-1.11-.41-1.11-.41a12.43 12.43 0 016.73.75s5.07-1.88 4.95-2.2z"/><ellipse cx="217.64" cy="808.92" fill="#438977" opacity=".1" rx="20.37" ry="3.44"/><path fill="#c8cad7" d="M676.98 826.81v7.82H445.72v-6.35a76 76 0 005.23-140.37h224.49a76.09 76.09 0 00-42 50.39 76 76 0 0029.36 80.46 76.07 76.07 0 0014.18 8.05z"/><path d="M675.44 687.91a76.09 76.09 0 00-42 50.39H492.97a76.09 76.09 0 00-42-50.39z" opacity=".1"/><path fill="#c8cad7" d="M180.92 648.07v43.9c0 24.24 17.74 43.89 39.63 43.89h680.38c21.89 0 39.63-19.65 39.63-43.89v-43.9z"/><path d="M676.98 826.81v7.82H445.72v-6.35a76.11 76.11 0 0017.84-9.5H662.8a76.07 76.07 0 0014.18 8.03z" opacity=".1"/><rect width="384.09" height="23.17" x="369.3" y="821.22" fill="#c8cad7" rx="9.5" ry="9.5"/><path fill="#474157" d="M940.56 167.04a39.63 39.63 0 00-39.63-39.63H220.55a39.63 39.63 0 00-39.63 39.63v489.57h759.64z"/><path fill="#f4f4f7" d="M919.83 184.76v420.63a19.5 19.5 0 01-19.51 19.51H221.15a19.5 19.5 0 01-19.51-19.51V184.76a19.51 19.51 0 0119.51-19.51h679.17a19.51 19.51 0 0119.51 19.51z"/><circle cx="560.74" cy="146.32" r="9.15" fill="#fff"/><circle cx="560.74" cy="693.8" r="22.56" fill="#fff"/><path fill="#fff" d="M919.83 184.76H201.65a19.5 19.5 0 0119.5-19.51h679.17a19.5 19.5 0 0119.51 19.51z"/><circle cx="221.15" cy="174.97" r="4.88" fill="#ededf4"/><circle cx="235.78" cy="174.97" r="4.88" fill="#ededf4"/><circle cx="250.42" cy="174.97" r="4.88" fill="#ededf4"/><path fill="#fff" d="M269.26 238.76h579.62v338.72H269.26z"/><path fill="#65617d" d="M368.29 524.99h21.37v4h-21.37zm10.69-10.69a2.67 2.67 0 10-.74-5.24l-5.57-4.07-.33.3 4.08 5.56a2.83 2.83 0 00-.11.78 2.66 2.66 0 002.67 2.67z"/><path fill="#65617d" d="M378.98 494.26a17.37 17.37 0 00-13.69 28.06h4.91l.34-.34 1.84-1.84-1.94-1.91-1.84 1.83a13.26 13.26 0 01-2.94-7.09h2.6v-2.68h-2.6a13.26 13.26 0 012.94-7.09l1.84 1.83 1.91-1.91-1.83-1.84a13.27 13.27 0 017.09-2.94v2.6h2.67v-2.6a13.34 13.34 0 017.1 2.94l-1.84 1.84 1.92 1.91 1.84-1.83a13.34 13.34 0 012.94 7.09h-2.61v2.68h2.61a13.34 13.34 0 01-2.94 7.09l-1.84-1.83-1.92 1.91 1.85 1.84.33.34h4.91a17.37 17.37 0 00-13.68-28.06zm-.01-72.84a9 9 0 01-3.58-.91.64.64 0 00-.91.63l.29 4.26a.33.33 0 00.53.23l1.21-.92a.33.33 0 01.47.09l1.71 2.68a.33.33 0 00.55 0l1.72-2.68a.33.33 0 01.48-.04l1.21.92a.33.33 0 00.53-.23l.29-4.26a.65.65 0 00-.91-.63 9.07 9.07 0 01-3.58.91z"/><path fill="#65617d" d="M390.8 410.69l-4-4.1c0-13.19-7.78-19-7.78-19s-7.86 5.85-7.86 19l-4 4.1a.7.7 0 00-.19.59l1.54 9.33a.64.64 0 001 .46l5.61-3.8a6.34 6.34 0 003.93 1.67 6 6 0 003.85-1.67l5.6 3.8a.64.64 0 001-.46l1.55-9.34a.73.73 0 00-.25-.58zm-11.79-8.44a2.68 2.68 0 112.56-2.67 2.62 2.62 0 01-2.56 2.67zm13.29-82.96h-.42c-.55 0-1-.07-1.06-.62-1.22-11.34-8.37-11.56-8.37-14.23s7.16-2.89 8.37-14.23c.06-.55.51-.62 1.06-.62h.42a1.2 1.2 0 001.21-1.11 1.18 1.18 0 00-1.17-1.23h-26.69a1.2 1.2 0 00-1.2 1.11 1.17 1.17 0 001.17 1.23h.46c.54 0 1 .07 1.06.62 1.22 11.34 8.37 11.56 8.37 14.23s-7.16 2.89-8.37 14.23c-.06.55-.52.62-1.06.62h-.43a1.2 1.2 0 00-1.2 1.11 1.17 1.17 0 001.17 1.23h26.72a1.17 1.17 0 001.17-1.23 1.21 1.21 0 00-1.21-1.11zm-21.06-2.85c2.4-6.67 6.64-5.86 6.64-8.49v-4.64c0-1.62-3.07-2.75-5-5.38a.65.65 0 01.54-1h11.1a.65.65 0 01.56 1c-1.89 2.64-5 3.77-5 5.39v4.64c0 2.61 4.08 1.9 6.66 8.49.24.59.06 1.33-.57 1.33h-14.35c-.65-.02-.8-.74-.58-1.34z"/><path fill="#5a5773" d="M756.54 304.43a11.13 11.13 0 01-11.1 11.15H459.69a11.15 11.15 0 110-22.29h285.75a11.14 11.14 0 0111.1 11.14zm0 103.17a11.13 11.13 0 01-11.1 11.16H459.69a11.15 11.15 0 010-22.29h285.75a11.15 11.15 0 0111.1 11.13zm0 104.03a11.13 11.13 0 01-11.1 11.13H459.69a11.15 11.15 0 110-22.29h285.75a11.14 11.14 0 0111.1 11.16z" opacity=".2"/><path fill="#438977" d="M699.19 293.29v22.29h-239.5a11.15 11.15 0 110-22.29zm42.5 103.16v22.31h-282a11.15 11.15 0 010-22.29zm-104.5 104.04v22.27h-177.5a11.15 11.15 0 110-22.29z"/><path fill="url(#a)" d="M1068.58 484.82c.55-1.49-3.55-9.78-3.55-10.19s-4.25-5-4.25-7.61-5.61-8.16-5.61-8.16-7.53-3.13-8.35-9.92-9-6.93-9-6.93v-1.56c0-2.12-.06-5.88-1-7.95a8 8 0 00-4.66-3.94s-.82-5.31-2.46-6.94a7.8 7.8 0 01-1.91-7.34c.82-2.57-1.09-9.1-5.07-10s-8.48-2.45-8.48-2.45-.45.09-1.1.18l-.55-.18a23.61 23.61 0 01-2.87.36 3.54 3.54 0 01-2.32-.77c-1.4-1.55-12.4-4.42-14.5-4.42s-7.95-2.73-7.95-2.73l-5.88-4.48c-1.65-1.26-4.7-6.36-5.14-7.1l-.06-.1a25.59 25.59 0 01-1.24-3.58 32.58 32.58 0 005.09-7c.14-.26.26-.53.4-.8a2.89 2.89 0 00.88-.14l.37-.14a6 6 0 002.9-3.47c.11-.3.19-.6.27-.9l.06-.3c0-.21.09-.42.13-.62l.06-.35c0-.21.07-.41.09-.62s0-.23 0-.34.06-.52.1-.77a27.39 27.39 0 01.43-2.86c.82-3.69 3-6.81 4.61-10.22.22-.49.44-1 .63-1.49s.38-1.09.54-1.65c0-.17.09-.34.13-.51.11-.41.2-.81.28-1.23 0-.18.07-.36.1-.54.09-.56.17-1.13.22-1.7a21 21 0 00-1.41-9.55c-1-2.55-2.55-4.85-3.59-7.4-1.57-3.87-2-8.25-3.91-11.93-3.22-6.18-10.81-9.28-17-6.95-3 1.11-5.55 3.26-8.57 4.22-4 1.29-8.38.32-12.56-.26s-8.82-.63-12.18 2.1c-3.88 3.15-4.94 9.06-8.58 12.52-1.53 1.45-3.42 2.38-5 3.72a8.14 8.14 0 00-2.53 3.46 2.46 2.46 0 00-.09.29 2 2 0 00-.09.35c0 .14-.05.27-.07.41s0 .19 0 .28a5.93 5.93 0 000 .73 5.07 5.07 0 00.11.68v.19c0 .06.1.38.17.57v.11c.07.21.16.41.24.62s.09.2.14.31a2.72 2.72 0 00.11.25 16.84 16.84 0 011.27 3.16 3.49 3.49 0 01-.13 2.09 6.37 6.37 0 01-1.51 2 28.24 28.24 0 00-6.18 9.89c-.16.42-.31.84-.44 1.27l.18.05a7.36 7.36 0 001.2.26c.23 0 .46.06.69.07a10.51 10.51 0 002.79-.21l.7-.16a17.85 17.85 0 002.77-1v1.3a32.33 32.33 0 0018 28.91l.12.88.09.74-.37-.35s-2.47-1.23-4.79 2.31a15.49 15.49 0 01-6.71 5.16s-24.91 3.94-25.87 7.21l-11.63.68s-4.11.54-4.52 9.1-2.6 9.38-2.6 9.38-4.79 8.43-4.38 12.78-3.79 6.5-3.79 6.5l-.55 7.75s-4.52-.68-5.75 4.62-3.42 7.75-3.42 7.75-7.53 6.25-7.94 11.55l-4.65 2.86s-10.82-2.45-13.28-6.8l-.76-.71a.53.53 0 01-.06-.1c-1.62-1.52-5.05-4.72-4.53-4a3.32 3.32 0 01.22 2.19l-.8-.9-2.15-2.31s-16.09-18.49-26.33-19.79a6.51 6.51 0 00-4.6 4.46c-1.3 4.42-2.66 11.74.72 15.34l16.18 17.29.42.31 3.52 4.52c-.59 1.42-1.09 2.8-1.51 4.05v.12c-.09.27-.17.54-.25.79l-.09.27c-.08.26-.15.51-.23.75s-.08.3-.13.45 0 .17-.07.26c-.39 1.36-.63 2.41-.76 3l-.91-.28.89.38a.89.89 0 000 .14 2.11 2.11 0 00-.06.29c.27.12.55.25.84.36 4.79 2.09 28.72 12.59 30 14.18 1.37 1.77 10.41 6.93 18.62 2.58s10-11 10-11 7.94-11 8.21-12.64 6.43-3.53 6.43-3.53.55 18.21-2.6 24.87-9 36.16-9 36.16a4.16 4.16 0 011.17-.07l-.35 1.7a4.07 4.07 0 011.45 0c-.44 3.35-3 18.92-3 18.92s-.83 7.07-2.19 9.52-1.51 15.22-1.51 15.22l-2.19 9.24s.29.64.83 1.6 2.35 5.21 6.31 8.14a16.69 16.69 0 01-1.11 4.22 14.78 14.78 0 00-1.09 6.53s-2.33 10.46-2.05 13.46-1.51 10.33-1.51 10.33l-2.46 23.65s-1.64 20.52-.82 26.1-.55 13.18-.55 13.18 1.64 16.18 1.23 17.94-2.46 9.38-1.23 13.59.55 15.77.55 15.77.82 15.23 1.77 20.12-.27 11.15-.27 11.15-1 10.46-1.37 10.46-4 7.2 3.28 14.27 2.75 6 2.75 6-5.75-2.85-5.07 3c.65 5.57 1.55 4.11 1.63 4l-1.36 4.47 1 .13c-.26.31-.52.63-.8 1a21.67 21.67 0 01-2.75 2.87c-1.65 1.22-1.79 3.93-1.79 3.93s-10.12 11-19.57 16.58c-5 2.94-9.25 5.42-11.12 7.48-1.69 1.84-1.41 3.33 2.09 4.49 7.39 2.45 20.39 3.67 29.7.55a34.77 34.77 0 0014.51-9.38s5.88-3 11.63-1.91 17.25-6.39 17.25-6.39l-.21-1.92-.61-5.56a4.4 4.4 0 01-1-3.39 17.4 17.4 0 00-.48-4.89c-.1-.54-.2-1.07-.3-1.58l1.05-.19s-1.37-6.93 1.1-8.3 1.77-19.16 1.77-19.16-3.14-4.08-4.79-4.76-.14-9.11.14-10.19 2.35-22.25 2.35-22.25-.82-6.65.27-9.51-1.37-13.86-1.37-13.86-.82-1.36.69-3 .95-16.17.95-16.17-.13-7.34-.13-9.25 1.64-8.83 3.14-11.14.55-9.51.55-9.51l.08-.55c0-.2.08-.46.13-.76l.12-.73a104.42 104.42 0 012.67-11.8c1.78-5.71 3.83-15.76 3.83-15.76l12.74-33.26.14-.39s5.88 10.87 5.88 20.94c0 0 1.51 12.09 1.1 15.35s1.24 18.62 1.24 18.62 1.77 22 1.77 23 2.19 17.94 3.56 20.52-1.37 10.47-2.19 11.28.27 20.8.27 20.8-2.05 15.76-2.46 19-2.05 15.77-.68 20.66.82 5.57.82 5.57 4.93 5 2 5.44a7.54 7.54 0 00-5.48 9.92 129.35 129.35 0 006 14.55l2.27-.48v1.62l.16 8.1s1 7.75.42 9.52a100.9 100.9 0 00-1.12 10.57c-.1 1.16-.16 1.94-.16 1.94s0 7.2 15.2 5S978 863.1 978 863.1s0-.28.12-.75c.22-1.37.71-4.29 1.12-5.91.55-2.18-4.38-12-4.38-12s-.82-6.66-2.19-8.16a6.93 6.93 0 01-1.1-2.85c-.13-.55-.24-1.12-.33-1.68q.54.08 1 .18s-.83-4.75 2.33-6.25 2.32-4.62 1.91-6 1.23-9 1.23-9a4.44 4.44 0 011.1-4.35c1.92-1.9 3.42-15.22 3.42-15.22l.27-51.38s1-9.11-.13-12.78-2.19-10.73-.69-12.64.14-10.74.14-10.74 0-18.62 2.05-23.24 1.37-33.84 1.37-33.84l.55-19.17s4.47-4.23 3.41-26.29c4.77-.3 10.15-.47 11 .19 1.51 1.22 11.22 7.48 17 3.53 1.23-.54 6.84-5.3 6.84-5.3l-2.41-40.75c1.5 2.27 2.42 3.78 2.42 3.78 0-5.71 16.15-24.19 16.15-24.19s15.05-19.44 18.34-21.75 9.71-14.55 9.71-14.55a59.23 59.23 0 013.29-6.79c1.46-2.36-3.54-8.88-2.96-10.38zm-35.31 14.27c-4.1.41-12.73 9.79-12.86 11.83a8.57 8.57 0 01-1.82 3.65c-.07-.82-.14-1.65-.2-2.5-1-12-2-26.65-1.54-28.07.82-2.44.54-13.45.54-13.45l.15-.21c2.76 8.53 11.33 18.59 11.33 18.59s1.51 4.35 3.29 4.48 1.11 5.68 1.11 5.68z" transform="translate(-30.56 -15.24)"/><path fill="#65617d" d="M783.26 480.76s5-26.17 21-26.3l11.73 24.14-7.82 5.4s-16.95.53-24.91-3.24z"/><path d="M816.04 478.59l-7.83 5.4s-12 .38-20.5-1.73a23.18 23.18 0 01-4.45-1.51s0-.15.09-.42a.54.54 0 010-.1 59.19 59.19 0 013-9.61c.49-1.18 1-2.39 1.66-3.6 2.35-4.52 5.65-9 10.17-11.15a13.88 13.88 0 015.35-1.4h.72l.25.53 4 8.16z" opacity=".1"/><path fill="#65617d" d="M949.32 587.32s16.86-1.62 18.34-.41 11.06 7.42 16.73 3.51 1.89-17.54 1.89-18.08-.54-19.83-.54-19.83l-10.12-13.62-12.68-23.88-25.9-2.56.67 37.9-.13 19.41z"/><path d="M949.32 587.32s16.86-1.62 18.34-.41 11.06 7.42 16.73 3.51 1.89-17.54 1.89-18.08-.54-19.83-.54-19.83l-10.12-13.62-12.68-23.88-25.9-2.56.67 37.9-.13 19.41z" opacity=".1"/><path fill="#fbbebe" d="M800.93 453.76s-1.34 16.46-11.6 16.73c0 0-2.9-1.75-6.81-4.67-9-6.75-23.3-19.7-19.35-31.76 5.66-17.26 33.18 14.57 33.18 14.57l2.12 2.37z"/><path d="M800.93 453.76s-1.34 16.46-11.6 16.73c0 0-2.9-1.75-6.81-4.67l-.88-1.13a13.29 13.29 0 005.62 1.51 7.57 7.57 0 007.33-4.62 57.39 57.39 0 002.85-6.52 19 19 0 001-4.05z" opacity=".1"/><path fill="#e7effd" d="M796.44 483.58l-2.31-3-7.76-10-4-5.11a13.29 13.29 0 005.62 1.51 7.58 7.58 0 007.33-4.62 57.39 57.39 0 002.84-6.53c1.28-3.64 1.26-5.51.8-6.14s2.87 2.44 4.46 3.95l.06.06.75.71.27.55 3.91 7.81v.33c.42 2.51 1.74 18.25-11.97 20.48z"/><path fill="#65617d" d="M877.29 830.76s-11.34 7.42-17 6.33-11.47 1.9-11.47 1.9a34.15 34.15 0 01-14.3 9.31c-9.17 3.1-22 1.88-29.27-.55-3.45-1.15-3.72-2.63-2.06-4.46 1.84-2 6.07-4.5 11-7.41 9.25-5.49 19.25-16.41 19.25-16.41s.14-2.7 1.76-3.91a22.55 22.55 0 002.72-2.84c1.45-1.72 2.81-3.51 2.81-3.51l33.32 1.09s.56 2.4 1 4.85a17.49 17.49 0 01.47 4.86 4.37 4.37 0 00.95 3.37l.59 5.51zm69.73 9.35c-.4 1.61-.88 4.5-1.1 5.86-.07.46-.11.75-.11.75s-2.7 5.93-17.67 8.09-15-5-15-5 .06-.77.16-1.93a103.33 103.33 0 011.2-10.48c.53-1.76-.41-9.45-.41-9.45l-.16-8-.11-5.59 24.84-2.6a46.25 46.25 0 00.8 5.53 7.37 7.37 0 001.08 2.83c1.36 1.49 2.17 8.09 2.17 8.09s4.85 9.73 4.31 11.9z"/><path d="M874.05 810.3s.56 2.4 1 4.85c-3.6.67-19.34 3.39-23.27 1.48-4.45-2.16-14-3.37-14-3.37l.16-.54c1.45-1.72 2.81-3.51 2.81-3.51zm65.39 7.01c-6.29-1.07-20.08 1.51-25.51 2.62l-.11-5.59 24.84-2.58a46.25 46.25 0 00.78 5.55z" opacity=".1"/><path fill="#3f3d56" d="M953.49 612.81l-.53 19s.67 29-1.35 33.59-2 23.07-2 23.07 1.35 8.76-.14 10.65-.41 8.9.68 12.54.13 12.69.13 12.69l-.27 51s-1.48 13.21-3.37 15.11a4.41 4.41 0 00-1.1 4.3s-1.62 7.55-1.22 8.9 1.22 4.46-1.88 5.94-2.3 6.2-2.3 6.2c-7.41-1.75-28.46 3-28.46 3a128.25 128.25 0 01-5.94-14.43 7.48 7.48 0 015.4-9.85c2.83-.4-2-5.39-2-5.39s.54-.68-.81-5.53.27-17.27.67-20.51 2.44-18.89 2.44-18.89-1.08-19.83-.27-20.64 3.51-8.64 2.16-11.2-3.51-19.42-3.51-20.37-1.75-22.8-1.75-22.8-1.63-15.24-1.24-18.43-1.09-15.25-1.09-15.25c0-10-5.79-20.77-5.79-20.77l-.15.39-12.54 32.93s-2 10-3.77 15.64a102.69 102.69 0 00-2.64 11.72l-.12.72c0 .3-.09.56-.12.76l-.08.54s.94 7.15-.54 9.45-3.1 9.17-3.1 11.06.13 9.17.13 9.17.54 14.43-.94 16a2.52 2.52 0 00-.68 3s2.43 10.93 1.35 13.76-.26 9.44-.26 9.44-2.16 20.91-2.43 22-1.76 9.44-.14 10.12 4.72 4.72 4.72 4.72.68 17.67-1.75 19-1.08 8.23-1.08 8.23-19.56 3.78-24 1.62-14-3.38-14-3.38l1.34-4.44c-.08.16-1 1.6-1.61-3.92-.67-5.8 5-3 5-3s4.45 1.08-2.7-5.93-3.64-14.17-3.24-14.17 1.35-10.38 1.35-10.38 1.22-6.21.27-11.07-1.78-19.96-1.78-19.96.67-11.46-.54-15.65.81-11.73 1.21-13.49-1.21-17.81-1.21-17.81 1.35-7.55.54-13.07.81-25.9.81-25.9l2.43-23.48s1.75-7.28 1.48-10.25 2-13.35 2-13.35a14.81 14.81 0 011.08-6.48c1.35-2.69 1.9-11.6 1.9-11.6L859.08 558l6.36-26.12 85.66-.81s.31 2.26.83 6.39 1.25 10.23 2.06 17.77c.75 6.84 1.57 14.9 2.37 23.86 2.53 28.59-2.87 33.72-2.87 33.72z"/><path fill="#fbbebe" d="M945.54 376.61l-20 21.32s-25.62-10.26-22.93-13.76c1-1.36.88-5.64.28-10.37-1-7.47-3-16.07-3-16.07s44.78-7.29 41 .26c-1.38 2.76-1.14 6-.28 9a33.62 33.62 0 004.93 9.62z"/><path d="M940.95 357.99c-1.38 2.76-2 3-1.18 6-5.85 6.28-13.3 13.15-22.56 13.15a31.85 31.85 0 01-14.29-3.38c-1-7.47-3-16.07-3-16.07s44.81-7.25 41.03.3z" opacity=".1"/><path fill="#fbbebe" d="M949.32 344.23a32.11 32.11 0 01-64.22 0v-.46a32.11 32.11 0 0164.21.46z"/><path d="M953.96 556.04c-4.25 0-18.41.15-34.23.4h-.2l-5.22.09h-.17c-18.77.3-37.26-3.37-44.68-2.67-15.78 1.48 5.66-14.57 5.66-14.57a131.83 131.83 0 0036 3.63l4.54-.23c14.34-.81 28.75-2.16 36.28-4.42.5 4.17 1.21 10.23 2.02 17.77z" opacity=".1"/><path fill="#e3a79f" d="M953.96 555.23c-4.25 0-18.41.15-34.23.4h-.2l-5.22.09h-.17c-18.77.3-37.26-3.37-44.68-2.67-15.78 1.48 5.66-14.57 5.66-14.57a132.06 132.06 0 0036 3.64l4.54-.24c14.34-.81 28.75-2.16 36.28-4.42.5 4.17 1.21 10.23 2.02 17.77z"/><path d="M908.58 385.52l-24.82 11.6-19.16 148.11s11.33-5.13 17.81-1.89 26.44.27 26.44.27 14.57-.81 16.72.81 27.52-6.75 27.52-6.75 4.59-10.25 1.08-11.87 1.08-17.53 1.08-17.53l-2.16-106.84-4.31-13.76-11.6-7-11.88 9.44-5.66.81z" opacity=".1"/><path fill="#e7effd" d="M908.58 383.9l-24.82 11.6-19.16 148.11s11.33-5.13 17.84-1.85 26.44.27 26.44.27 14.57-.81 16.72.81 27.52-6.74 27.52-6.74 4.59-10.26 1.08-11.87 1.08-17.54 1.08-17.54l-2.16-106.84-4.31-13.76-11.6-7-11.88 9.44-5.66.81z"/><path d="M908.17 390.76s7.15 8.49 7 10.25-.41 5.93-.41 5.93l-5.32 10.95s-3 13.62-3 16.46-4.74 27.41-4.74 27.41l-5.67 37.77-7.15 49.51 7.29 12.54 8.63-7.28 11.47-88.22 2.42-17.4s2.57-31.3 2.57-34.54-1.49-11.73-1.49-11.73 1.76-8.1 9-10-.54-.4-.54-.4l-4.18-3.37-3.61 1.46s-10.11-3.1-12.27.66z" opacity=".1"/><path fill="#3f3d56" d="M907.36 389.97s7.15 8.49 7 10.25-.41 5.93-.41 5.93l-5.39 10.93s-3 13.62-3 16.46-4.72 27.38-4.72 27.38l-5.67 37.77-7.15 49.51 7.34 12.56 8.63-7.28 11.45-88.24 2.43-17.4s2.56-31.3 2.56-34.54-1.49-11.73-1.49-11.73 1.76-8.1 9-10-.54-.41-.54-.41l-4.18-3.37-3.64 1.48s-10.06-3.08-12.22.7z"/><path d="M902.64 375.76s-1.08.81-1.35 6.21-4 17.53-4 17.53 14-9.71 21-8.63z" opacity=".1"/><path fill="#e7effd" d="M902.64 374.18s-1.08.81-1.35 6.21-4 17.54-4 17.54 14-9.72 21-8.64z"/><path d="M940.95 371.49l-22.12 19.42s18.62 11.06 21 13.76 4.86-26.44 4.86-26.44z" opacity=".1"/><path fill="#e7effd" d="M941.76 369.87l-22.12 19.42s18.61 11.06 21 13.76 4.86-26.44 4.86-26.44z"/><path d="M903.44 375.76s-2.43-1.21-4.72 2.3a15.26 15.26 0 01-6.61 5.12s-24.55 3.91-25.49 7.15l-11.47.68s-4.05.54-4.45 9-2.56 9.31-2.56 9.31-4.7 8.44-4.31 12.75-3.64 6.48-3.64 6.48l16.86 43.84s.54 18.07-2.56 24.68-8.91 35.88-8.91 35.88 2.43-.54 2.3 1.08-3 19.29-3 19.29-.81 7-2.16 9.44-1.48 15.11-1.48 15.11l-2.16 9.18s5.12 11.46 13 9.84 22-32.24 22-32.24l9-33 7-32.64 2-22.12 3.24-49 4.72-32.37s5.3-17.42 3.4-19.76z" opacity=".1"/><path fill="#65617d" d="M902.64 374.18s-2.43-1.21-4.72 2.3a15.26 15.26 0 01-6.61 5.12s-24.55 3.92-25.49 7.15l-11.47.68s-4 .54-4.45 9-2.56 9.33-2.56 9.33-4.72 8.37-4.32 12.68-3.64 6.48-3.64 6.48l16.86 43.84s.54 18.07-2.56 24.68-8.91 35.88-8.91 35.88 2.43-.53 2.3 1.08-3 19.29-3 19.29-.81 7-2.16 9.45-1.48 15.1-1.48 15.1l-2.16 9.18s5.12 11.46 12.95 9.84 22-32.24 22-32.24l9-33 7-32.65 2-22.12 3.24-49 4.72-32.37s5.35-17.4 3.46-19.7z"/><path d="M816.04 478.59l-7.83 5.4s-12 .38-20.5-1.73l-4.36-1.93-.87-.38.9.28c4.5 1.34 8 1.31 10.79.38 11.07-3.72 9.85-22 9.42-26.14 0-.41-.07-.68-.09-.79a.53.53 0 00.06.1 5.78 5.78 0 00.51.71c.15.18.32.36.49.53l3.91 7.81v.33z" opacity=".1"/><path fill="#65617d" d="M843.15 425.85l-3.77 1.08-.54 7.69s-4.45-.68-5.67 4.58-3.37 7.69-3.37 7.69-7.42 6.21-7.82 11.47l-4.54 2.83s-10.66-2.43-13.08-6.74c0 0 4.85 34.8-21 26.3 0 0 29 12.68 30.35 14.43s10.25 6.88 18.35 2.57 9.85-10.93 9.85-10.93 7.82-10.93 8.09-12.55 6.34-3.5 6.34-3.5l11.5-28.01z"/><path d="M937.85 387.67l3.91-17.8s1.76 5.8 3.51 7.15l5.8 4.45s5.8 2.7 7.82 2.7 12.95 2.83 14.3 4.31 6.75.41 6.75.41 4.45 1.48 8.36 2.43 5.8 7.41 5 10a7.77 7.77 0 001.89 7.28c1.62 1.62 2.43 6.88 2.43 6.88a7.94 7.94 0 014.58 3.91c1.35 3 1 9.45 1 9.45l-20.1 28.32s.27 10.93-.54 13.36 2.83 43.7 2.83 43.7l4.18 71s-5.53 4.72-6.74 5.26-2.43-25.09-2.43-26-31.22-46.72-31.22-46.72-4.18-6.74-4.18-8.23-3.91-15.11-3.91-15.11l-5.94-26.3z" opacity=".1"/><path fill="#65617d" d="M1004.81 427.27v1.54l-20.09 28.31s.27 10.93-.54 13.36c-.47 1.4.56 15.92 1.51 27.85.68 8.6 1.32 15.85 1.32 15.85l1.78 30.1 2.4 40.86s-5.53 4.72-6.74 5.26-2.43-25.09-2.43-26-31.22-46.64-31.22-46.64-4.18-6.75-4.18-8.23-3.91-15.11-3.91-15.11l-5.94-26.3 2.7-80.4 2.29-17.8s3.37 5.8 5.13 7.14 5.8 4.46 5.8 4.46 5.8 2.7 7.82 2.7 12.95 2.83 14.3 4.31 6.75.41 6.75.41 4.45 1.48 8.36 2.43 5.8 7.42 5 10a7.78 7.78 0 001.89 7.29c1.61 1.62 2.42 6.88 2.42 6.88a7.94 7.94 0 014.59 3.92c.93 1.96 1.02 5.7.99 7.81z"/><path d="M839.92 786.69c.67 0 29 1.08 28.46 5.66s-28.46-5.66-28.46-5.66zm6.34 7.69s19 3.1 14 5.93-14-5.93-14-5.93zm70.68-10.62s31.57 2.7 26.85 6.2-15.92 4.05-16.46 4.19-10.39-10.39-10.39-10.39zm-3.78 13.85s17.54 3 18.08 6.34-18.08-6.34-18.08-6.34zm9.72-81.2s16 3.78 17 6.34zm-61.92 11.6s-8.36 2.43-.27 7.28.27-7.28.27-7.28zm37.1-129.63c.94 0 15.64-4.86 20.77-2.7a34.25 34.25 0 0011.47 2.16zm1.89 15.38l-.15 1.34-12.54 32.93s-2 10-3.77 15.64a102.69 102.69 0 00-2.64 11.72l11.13-69z" opacity=".1"/><path fill="#3f3d56" d="M919.53 555.63l-5.22.09h-.17l-3.06-13.6 4.54-.24z"/><path fill="#fbbebe" d="M983.17 539.16l-3.35 2.77-11.21 9.23s-30.36 16.19-38.72.81c-7.37-13.55 27-23.22 35.33-25.33l1.77-.43z"/><path d="M853.54 406.56s5.94 2.7 7.29 6.47-7.29-6.47-7.29-6.47zm-18.34 40.47s-8.64 10.52-5.13 14.56 5.13-14.56 5.13-14.56zm154.31-34.54s-8.09.81-8.36 7.83zm-75 110.62c.81-.81 19.43-28.33 23.74-25.9zm34.81-178.88a32 32 0 01-3.8 15.16h-.24c-2-.43-3.09-2.8-4.65-4.29a6.32 6.32 0 00-7.28-1 7.4 7.4 0 00-3.58 6.92c-1-4.32-.7-8.91-1.71-13.24s-4-8.71-8.15-8.78c-1.78 0-3.86.66-5.15-.68-.78-.8-.94-2.07-1.52-3.05-3-4.78-11.95-2.36-15.62.09s-7.94 6.37-12.51 8.47a32.11 32.11 0 0164.21.46z" opacity=".1"/><path fill="#3f3d56" d="M913.24 334.4c.58 1 .74 2.25 1.52 3.05 1.28 1.34 3.36.65 5.15.68 4.13.07 7.15 4.45 8.15 8.78s.68 8.92 1.71 13.25a7.38 7.38 0 013.58-6.92 6.34 6.34 0 017.28 1c1.56 1.49 2.62 3.86 4.65 4.28s4-1.52 4.73-3.66.69-4.5 1.17-6.72c.91-4.21 3.66-7.66 5.18-11.66a21.1 21.1 0 00-.14-15.07c-1-2.53-2.52-4.81-3.54-7.34-1.55-3.85-2-8.19-3.85-11.85-3.17-6.13-10.66-9.2-16.8-6.89-2.94 1.1-5.48 3.23-8.46 4.19-4 1.28-8.25.32-12.37-.26s-8.69-.63-12 2.09c-3.82 3.12-4.86 9-8.45 12.42-1.51 1.44-3.38 2.36-5 3.69s-3 3.32-2.77 5.48c.23 2.79 3 5.33 2 7.92a6.29 6.29 0 01-1.5 2 28.19 28.19 0 00-6.53 11.11c7.22 2.26 15-5.7 20.68-9.46 3.66-2.47 12.65-4.89 15.61-.11z"/><path d="M983.17 539.16l-3.35 2.77c-3-4.93-15.12-14.78-15.12-14.78l.52-.51 1.77-.43z" opacity=".1"/><path fill="#e7effd" d="M986.44 534.17s-1.2 3-2.45 5.6-2.61 5-2.67 3c-.14-3.78-15.78-16.46-15.78-16.46l2.12-2.06 2.46-2.39z"/><path d="M986.95 514.2l1.78 30.1c-4.2-6.51-15.7-23.22-23.09-22.68l17.94-20.64a23.85 23.85 0 002.05-2.63c.68 8.6 1.32 15.85 1.32 15.85z" opacity=".1"/><path d="M986.44 534.17s-1.2 3-2.45 5.6c-4.7-6.45-11.17-14.07-16.33-15.49l2.46-2.39z" opacity=".1"/><path fill="#65617d" d="M999.9 425.04l4.86 3.78s8.09.13 8.9 6.88 8.23 9.84 8.23 9.84 5.53 5.53 5.53 8.1 4.18 7.15 4.18 7.55 4 8.63 3.51 10.12 4.31 8 2.83 10.38a60.84 60.84 0 00-3.24 6.75s-6.34 12.14-9.57 14.43-18.08 21.59-18.08 21.59-15.92 18.34-15.92 24c0 0-15.51-25.9-24.68-25.23l17.99-20.63s3.1-3.37 3.24-5.39 8.63-11.33 12.68-11.74c0 0 .67-5.53-1.08-5.66s-3.24-4.46-3.24-4.46-11.87-14-12-22.93 15.86-27.38 15.86-27.38z"/><path d="M1007.05 437.85s-11.33 8.37-8.9 11.06 8.9-11.06 8.9-11.06zm.54 34.54s21-6.75 23.2 0zm-130.3 358.37s-11.34 7.42-17 6.33-11.47 1.9-11.47 1.9a34.15 34.15 0 01-14.3 9.31c-9.17 3.1-22 1.88-29.27-.55-3.45-1.15-3.72-2.63-2.06-4.46 7.91 1.58 25.61 4.72 30.39 2.44 6.2-3 15.1-9.44 15.1-9.44s11.61-1.53 13.23-1.53c1.15 0 10.11-3.7 15.16-5.82zm68.63 15.21c-.07.46-.11.75-.11.75s-2.7 5.93-17.67 8.09-15-5-15-5 .06-.77.16-1.93c4.75 1.81 15.14 3.82 32.62-1.91zm-86.78-409.74s0 30.76-2.63 33.8 2.63-33.8 2.63-33.8zm121.61 9.92l3.91 11s1.55-10.8-3.91-11zm-95.39-117.91c1-2.53-1.59-5-1.93-7.73a5 5 0 00-.43 2.44c.17 2.05 1.68 3.95 2.08 5.84a3.55 3.55 0 00.28-.55zm44.77 29.06c-1-4.26-.68-8.76-1.66-13s-4-8.71-8.16-8.78c-1.78 0-3.86.66-5.15-.68-.78-.8-.93-2.07-1.52-3.05-3-4.78-11.94-2.36-15.62.09-5.52 3.67-13.1 11.34-20.17 9.6-.34.82-.66 1.64-.92 2.49 7.22 2.26 15-5.7 20.68-9.46 3.68-2.45 12.67-4.87 15.63-.09.58 1 .74 2.25 1.52 3.05 1.28 1.34 3.36.65 5.15.68 4.13.07 7.15 4.45 8.15 8.78s.68 8.92 1.71 13.25a7.66 7.66 0 01.36-2.88zm20.31-5.06c-.74 2.14-2.66 4.1-4.74 3.66s-3.09-2.79-4.64-4.28a6.34 6.34 0 00-7.28-1 7.32 7.32 0 00-3.58 6.53 7 7 0 013.17-3.9 6.34 6.34 0 017.28 1c1.56 1.49 2.62 3.86 4.65 4.28s4-1.52 4.73-3.66a18.1 18.1 0 00.74-3.88 11 11 0 01-.33 1.25zm6.32-18.38c-1.52 4-4.26 7.45-5.18 11.66-.18.85-.29 1.72-.39 2.59.92-4.19 3.65-7.64 5.17-11.62a21 21 0 001.25-5.6 21.47 21.47 0 01-.85 2.97z" opacity=".1"/></svg>